<svg width="7" height="12" viewBox="0 0 7 12" fill="none" xmlns="http://www.w3.org/2000/svg">
<path d="M5.83317 7.76666L2.00817 11.5917C1.85203 11.7469 1.64082 11.834 1.42067 11.834C1.20051 11.834 0.989304 11.7469 0.833169 11.5917C0.755061 11.5142 0.693066 11.422 0.650759 11.3205C0.608452 11.2189 0.58667 11.11 0.58667 11C0.58667 10.89 0.608452 10.7811 0.650759 10.6795C0.693066 10.578 0.755061 10.4858 0.833168 10.4083L4.6665 6.59166C4.74461 6.51419 4.8066 6.42202 4.84891 6.32047C4.89122 6.21892 4.913 6.11 4.913 5.99999C4.913 5.88998 4.89122 5.78106 4.84891 5.67951C4.8066 5.57796 4.74461 5.48579 4.6665 5.40832L0.833168 1.59165C0.676248 1.43584 0.587652 1.22407 0.586871 1.00294C0.586089 0.781798 0.673187 0.569408 0.829002 0.412489C0.984816 0.255568 1.19658 0.166972 1.41772 0.166191C1.63886 0.165409 1.85125 0.252508 2.00817 0.408322L5.83317 4.23332C6.30134 4.70207 6.5643 5.33749 6.5643 5.99999C6.5643 6.66249 6.30134 7.2979 5.83317 7.76666Z" fill="#444444"/>
</svg>
