<svg width="20" height="20" viewBox="0 0 20 20" fill="none" xmlns="http://www.w3.org/2000/svg">
<path d="M14.5694 11.7667L10.7444 15.5917C10.5882 15.7469 10.377 15.834 10.1569 15.834C9.93672 15.834 9.72551 15.7469 9.56937 15.5917C9.49127 15.5142 9.42927 15.422 9.38697 15.3205C9.34466 15.2189 9.32288 15.11 9.32288 15C9.32288 14.89 9.34466 14.7811 9.38697 14.6795C9.42927 14.578 9.49127 14.4858 9.56937 14.4083L13.4027 10.5917C13.4808 10.5142 13.5428 10.422 13.5851 10.3205C13.6274 10.2189 13.6492 10.11 13.6492 9.99999C13.6492 9.88998 13.6274 9.78106 13.5851 9.67951C13.5428 9.57796 13.4808 9.48579 13.4027 9.40832L9.56937 5.59165C9.41245 5.43584 9.32386 5.22407 9.32308 5.00294C9.3223 4.7818 9.40939 4.56941 9.56521 4.41249C9.72102 4.25557 9.93279 4.16697 10.1539 4.16619C10.3751 4.16541 10.5875 4.25251 10.7444 4.40832L14.5694 8.23332C15.0375 8.70207 15.3005 9.33749 15.3005 9.99999C15.3005 10.6625 15.0375 11.2979 14.5694 11.7667Z" fill="#444444"/>
<path d="M10.0049 11.7667L6.17992 15.5917C6.02379 15.7469 5.81258 15.834 5.59242 15.834C5.37227 15.834 5.16106 15.7469 5.00492 15.5917C4.92681 15.5142 4.86482 15.422 4.82251 15.3205C4.7802 15.2189 4.75842 15.11 4.75842 15C4.75842 14.89 4.7802 14.7811 4.82251 14.6795C4.86482 14.578 4.92681 14.4858 5.00492 14.4083L8.83825 10.5917C8.91636 10.5142 8.97836 10.422 9.02066 10.3205C9.06297 10.2189 9.08475 10.11 9.08475 9.99999C9.08475 9.88998 9.06297 9.78106 9.02066 9.67951C8.97836 9.57796 8.91636 9.48579 8.83825 9.40832L5.00492 5.59165C4.848 5.43584 4.75941 5.22407 4.75862 5.00294C4.75784 4.7818 4.84494 4.56941 5.00075 4.41249C5.15657 4.25557 5.36834 4.16697 5.58947 4.16619C5.81061 4.16541 6.023 4.25251 6.17992 4.40832L10.0049 8.23332C10.4731 8.70207 10.7361 9.33749 10.7361 9.99999C10.7361 10.6625 10.4731 11.2979 10.0049 11.7667Z" fill="#444444"/>
</svg>
