<svg width="12" height="7" viewBox="0 0 12 7" fill="none" xmlns="http://www.w3.org/2000/svg">
<mask id="path-1-inside-1_483_537" fill="white">
<path d="M7.76666 5.33317L11.5917 1.50817C11.7469 1.35203 11.834 1.14082 11.834 0.920668C11.834 0.700514 11.7469 0.489304 11.5917 0.333169C11.5142 0.255061 11.422 0.193066 11.3205 0.150759C11.2189 0.108452 11.11 0.0866699 11 0.0866699C10.89 0.0866699 10.7811 0.108452 10.6795 0.150759C10.578 0.193066 10.4858 0.255061 10.4083 0.333168L6.59166 4.1665C6.51419 4.24461 6.42202 4.3066 6.32047 4.34891C6.21892 4.39122 6.11 4.413 5.99999 4.413C5.88998 4.413 5.78106 4.39122 5.67951 4.34891C5.57796 4.3066 5.48579 4.24461 5.40832 4.1665L1.59165 0.333168C1.43584 0.176248 1.22407 0.0876527 1.00294 0.0868713C0.781798 0.0860899 0.569408 0.173187 0.412489 0.329002C0.255568 0.484817 0.166972 0.696585 0.166191 0.917722C0.165409 1.13886 0.252508 1.35125 0.408322 1.50817L4.23332 5.33317C4.70207 5.80134 5.33749 6.0643 5.99999 6.0643C6.66249 6.0643 7.2979 5.80134 7.76666 5.33317Z"/>
</mask>
<path d="M7.76666 5.33317L11.5917 1.50817C11.7469 1.35203 11.834 1.14082 11.834 0.920668C11.834 0.700514 11.7469 0.489304 11.5917 0.333169C11.5142 0.255061 11.422 0.193066 11.3205 0.150759C11.2189 0.108452 11.11 0.0866699 11 0.0866699C10.89 0.0866699 10.7811 0.108452 10.6795 0.150759C10.578 0.193066 10.4858 0.255061 10.4083 0.333168L6.59166 4.1665C6.51419 4.24461 6.42202 4.3066 6.32047 4.34891C6.21892 4.39122 6.11 4.413 5.99999 4.413C5.88998 4.413 5.78106 4.39122 5.67951 4.34891C5.57796 4.3066 5.48579 4.24461 5.40832 4.1665L1.59165 0.333168C1.43584 0.176248 1.22407 0.0876527 1.00294 0.0868713C0.781798 0.0860899 0.569408 0.173187 0.412489 0.329002C0.255568 0.484817 0.166972 0.696585 0.166191 0.917722C0.165409 1.13886 0.252508 1.35125 0.408322 1.50817L4.23332 5.33317C4.70207 5.80134 5.33749 6.0643 5.99999 6.0643C6.66249 6.0643 7.2979 5.80134 7.76666 5.33317Z" fill="white"/>
<path d="M11.5917 1.50817L26.6766 16.5931L26.699 16.5707L26.7214 16.5482L11.5917 1.50817ZM11.834 0.920668L33.1673 0.920669L11.834 0.920668ZM11.5917 0.333169L-3.55501 15.3561L-3.54656 15.3647L-3.5381 15.3732L11.5917 0.333169ZM10.4083 0.333168L25.5261 15.3852L25.5406 15.3707L25.555 15.3561L10.4083 0.333168ZM6.59166 4.1665L-8.52612 -10.8855L-8.54058 -10.871L-8.55501 -10.8565L6.59166 4.1665ZM5.99999 4.413L5.99999 -16.9203L5.99999 4.413ZM5.40832 4.1665L20.555 -10.8565L20.5406 -10.871L20.5261 -10.8855L5.40832 4.1665ZM1.59165 0.333168L-13.5465 15.3647L-13.5363 15.375L-13.5261 15.3852L1.59165 0.333168ZM0.408322 1.50817L-14.7298 16.5397L-14.7033 16.5665L-14.6766 16.5931L0.408322 1.50817ZM4.23332 5.33317L-10.8516 20.4181L-10.8422 20.4275L4.23332 5.33317ZM22.8516 20.4181L26.6766 16.5931L-3.49328 -13.5768L-7.31829 -9.75178L22.8516 20.4181ZM26.7214 16.5482C30.85 12.3949 33.1673 6.77675 33.1673 0.920669L-9.49935 0.920668C-9.49935 -4.49511 -7.35627 -9.69088 -3.5381 -13.5318L26.7214 16.5482ZM33.1673 0.920669C33.1673 -4.93544 30.85 -10.5536 26.7214 -14.7068L-3.5381 15.3732C-7.35625 11.5322 -9.49935 6.33647 -9.49935 0.920668L33.1673 0.920669ZM26.7383 -14.6898C24.6776 -16.7675 22.226 -18.4165 19.5248 -19.5419L3.11617 19.8434C0.618069 18.8027 -1.64926 17.2776 -3.55501 15.3561L26.7383 -14.6898ZM19.5248 -19.5419C16.8236 -20.6673 13.9263 -21.2467 11 -21.2467L11 21.42C8.29372 21.42 5.61426 20.8842 3.11617 19.8434L19.5248 -19.5419ZM11 -21.2467C8.07371 -21.2467 5.1764 -20.6673 2.47521 -19.5419L18.8838 19.8434C16.3857 20.8842 13.7063 21.42 11 21.42L11 -21.2467ZM2.47521 -19.5419C-0.22599 -18.4165 -2.67765 -16.7675 -4.73834 -14.6898L25.555 15.3561C23.6492 17.2776 21.3819 18.8027 18.8838 19.8434L2.47521 -19.5419ZM-4.70945 -14.7189L-8.52612 -10.8855L21.7094 19.2185L25.5261 15.3852L-4.70945 -14.7189ZM-8.55501 -10.8565C-6.64926 -12.7779 -4.38193 -14.303 -1.88383 -15.3437L14.5248 24.0416C17.226 22.9162 19.6776 21.2671 21.7383 19.1895L-8.55501 -10.8565ZM-1.88383 -15.3437C0.614265 -16.3845 3.29372 -16.9203 5.99999 -16.9203L5.99999 25.7463C8.92627 25.7463 11.8236 25.1669 14.5248 24.0416L-1.88383 -15.3437ZM5.99999 -16.9203C8.70626 -16.9203 11.3857 -16.3845 13.8838 -15.3437L-2.52479 24.0416C0.176401 25.1669 3.0737 25.7463 5.99999 25.7463L5.99999 -16.9203ZM13.8838 -15.3437C16.3819 -14.303 18.6492 -12.7779 20.555 -10.8565L-9.73834 19.1895C-7.67766 21.2671 -5.22599 22.9162 -2.52479 24.0416L13.8838 -15.3437ZM20.5261 -10.8855L16.7094 -14.7189L-13.5261 15.3852L-9.70945 19.2185L20.5261 -10.8855ZM16.7298 -14.6984C12.5874 -18.8702 6.95741 -21.2256 1.07832 -21.2463L0.927552 21.4201C-4.50926 21.4009 -9.71572 19.2227 -13.5465 15.3647L16.7298 -14.6984ZM1.07832 -21.2463C-4.80077 -21.2671 -10.4473 -18.9516 -14.6191 -14.8092L15.444 15.4672C11.5861 19.2979 6.36436 21.4393 0.927552 21.4201L1.07832 -21.2463ZM-14.6191 -14.8092C-18.7908 -10.6668 -21.1462 -5.03678 -21.167 0.842339L21.4994 0.993105C21.4802 6.42995 19.302 11.6364 15.444 15.4672L-14.6191 -14.8092ZM-21.167 0.842339C-21.1878 6.72148 -18.8722 12.368 -14.7298 16.5397L15.5465 -13.5234C19.3772 -9.66547 21.5186 -4.44376 21.4994 0.993105L-21.167 0.842339ZM-14.6766 16.5931L-10.8516 20.4181L19.3183 -9.75178L15.4933 -13.5768L-14.6766 16.5931ZM-10.8422 20.4275C-6.37349 24.8907 -0.315888 27.3976 5.99999 27.3976L5.99999 -15.269C10.9909 -15.269 15.7776 -13.288 19.3089 -9.76116L-10.8422 20.4275ZM5.99999 27.3976C12.3159 27.3976 18.3735 24.8907 22.8422 20.4275L-7.3089 -9.76116C-3.77765 -13.288 1.00912 -15.269 5.99999 -15.269L5.99999 27.3976Z" fill="white" mask="url(#path-1-inside-1_483_537)"/>
</svg>
