<svg width="77" height="77" viewBox="0 0 77 77" fill="none" xmlns="http://www.w3.org/2000/svg">
<g clip-path="url(#clip0_31_376)">
<path d="M70.14 0H6.57C2.94149 0 0 2.94149 0 6.57V70.14C0 73.7685 2.94149 76.71 6.57 76.71H70.14C73.7685 76.71 76.71 73.7685 76.71 70.14V6.57C76.71 2.94149 73.7685 0 70.14 0Z" fill="#FFB1FF"/>
<path d="M66.36 12.08C64.18 9.90003 50.75 8.92003 41.71 17.96C40.16 19.51 39.08 21.36 38.46 23.31C37.84 21.35 36.76 19.51 35.21 17.96C26.17 8.92003 12.74 9.90003 10.56 12.08C8.38001 14.26 7.40001 27.69 16.44 36.73C18.35 38.64 20.7 39.84 23.17 40.34C18.17 44.67 17.6 51.52 18.56 52.86C19.58 54.28 26.96 56.07 32.87 51.92C32.6 52.71 32.34 53.52 32.08 54.36C29.61 62.44 28.69 69.32 30.01 69.72C31.34 70.13 34.42 63.91 36.89 55.83C37.51 53.8 38.04 51.84 38.45 50.04C38.86 51.84 39.39 53.8 40.01 55.83C42.48 63.91 45.56 70.13 46.89 69.72C48.22 69.31 47.29 62.43 44.82 54.36C44.56 53.52 44.3 52.71 44.03 51.92C49.94 56.07 57.33 54.28 58.34 52.86C59.3 51.52 58.73 44.68 53.73 40.34C56.2 39.84 58.55 38.64 60.46 36.73C69.5 27.69 68.52 14.26 66.34 12.08H66.36ZM38.46 40.13C34.15 40.13 30.42 37.68 28.56 34.1C33.57 34.08 37.71 30.36 38.37 25.53C38.39 25.41 38.54 25.41 38.55 25.53C39.21 30.36 43.35 34.09 48.36 34.1C46.5 37.68 42.77 40.13 38.46 40.13Z" fill="white"/>
</g>
<defs>
<clipPath id="clip0_31_376">
<rect width="76.71" height="76.71" fill="white"/>
</clipPath>
</defs>
</svg>
