<svg width="77" height="77" viewBox="0 0 77 77" fill="none" xmlns="http://www.w3.org/2000/svg">
<path d="M70.14 0H6.57C2.94149 0 0 2.94149 0 6.57V70.14C0 73.7685 2.94149 76.71 6.57 76.71H70.14C73.7685 76.71 76.71 73.7685 76.71 70.14V6.57C76.71 2.94149 73.7685 0 70.14 0Z" fill="#FFA202"/>
<path d="M40.72 34.03H62.52V43.91H40.72V34.03ZM54.05 12.03V29.69H62.52V12.03H54.05ZM49.19 12.03H40.72V29.69H49.19V12.03ZM35.99 12.03H27.52V35.25H35.99V12.03ZM22.66 12.03H14.19V35.25H22.66V12.03ZM36.69 43.46H14.19V56.43L28.6 65.85L62.52 55.39V48.01H36.69V43.47V43.46Z" fill="white"/>
</svg>
