<svg width="77" height="77" viewBox="0 0 77 77" fill="none" xmlns="http://www.w3.org/2000/svg">
<path d="M70.14 0H6.57C2.94149 0 0 2.94149 0 6.57V70.14C0 73.7685 2.94149 76.71 6.57 76.71H70.14C73.7685 76.71 76.71 73.7685 76.71 70.14V6.57C76.71 2.94149 73.7685 0 70.14 0Z" fill="#FF612C"/>
<path d="M53.89 38.1978C48.57 33.0478 50.23 29.0578 52.68 26.9378C52.68 26.9378 46.15 26.1478 43.83 31.4678C41.5 36.7878 45.99 39.5278 45.99 39.5278C45.99 39.5278 39.51 36.9478 41.33 30.6278C42.94 25.0678 45.9 22.1478 44.57 16.2478C43.07 9.57777 33.6 6.75777 29.02 8.50777C32.22 9.58777 34.53 12.5978 34.53 16.1678C34.53 20.3278 31.24 23.0878 26.82 27.5578C21.71 32.7078 16.5 38.5278 16.5 47.8678C16.5 58.6478 23.15 65.3178 31.12 67.7378C27.08 65.8078 18.67 59.7478 19.72 48.0878C20.82 35.7878 32.61 27.3878 32.61 27.3878C32.61 27.3878 30.07 31.6478 31.18 38.5478C31.8 42.4278 34.58 47.1978 37.23 49.2678C40.95 52.1778 45.87 55.1978 45.16 60.7178C44.49 65.8978 37.61 68.2178 34.14 68.4278C35.72 68.6878 37.33 68.7978 38.92 68.7478C50.73 68.7478 59.5 59.9678 59.5 50.6278C59.5 43.2378 55.96 40.1978 53.88 38.1978H53.89Z" fill="white"/>
</svg>
