<svg width="77" height="77" viewBox="0 0 77 77" fill="none" xmlns="http://www.w3.org/2000/svg">
<g clip-path="url(#clip0_31_324)">
<path d="M70.14 0H6.57C2.94149 0 0 2.94149 0 6.57V70.14C0 73.7685 2.94149 76.71 6.57 76.71H70.14C73.7685 76.71 76.71 73.7685 76.71 70.14V6.57C76.71 2.94149 73.7685 0 70.14 0Z" fill="#42BF24"/>
<path d="M11.47 66.62H29.1C29.1 66.62 33.92 22.23 31.43 22.23C28.94 22.23 11.47 66.62 11.47 66.62ZM41.07 66.62H58.69C58.69 66.62 67 22.23 64.51 22.23C62.02 22.23 41.07 66.62 41.07 66.62ZM35.08 66.62L47.88 41.18C47.88 41.18 52.54 10.92 50.37 10.92C48.2 10.92 37.23 37.86 37.23 37.86L35.07 66.62H35.08Z" fill="white"/>
</g>
<defs>
<clipPath id="clip0_31_324">
<rect width="76.71" height="76.71" fill="white"/>
</clipPath>
</defs>
</svg>
