<svg width="77" height="77" viewBox="0 0 77 77" fill="none" xmlns="http://www.w3.org/2000/svg">
<path d="M70.14 0H6.57C2.94149 0 0 2.94149 0 6.57V70.14C0 73.7685 2.94149 76.71 6.57 76.71H70.14C73.7685 76.71 76.71 73.7685 76.71 70.14V6.57C76.71 2.94149 73.7685 0 70.14 0Z" fill="#42D8FF"/>
<path d="M31.3982 11.7366L38.3491 4.78577L45.2999 11.7366L38.3491 18.6875L31.3982 11.7366Z" fill="white"/>
<path d="M11.49 48.24H21.32V58.07H11.49V48.24Z" fill="white"/>
<path d="M31.3972 64.9662L38.3481 58.0154L45.2989 64.9662L38.3481 71.9171L31.3972 64.9662Z" fill="white"/>
<path d="M55.38 18.75V28.52L38.35 18.69L21.32 28.52V18.75H11.49V28.58H21.32V48.18L38.35 58.01L55.38 48.18V28.58H65.21V18.75H55.38ZM31.14 34.32V43.94H26.03V31.34H26.08L36.94 25.07L39.49 29.49L31.13 34.32H31.14ZM55.38 48.24H65.21V58.07H55.38V48.24Z" fill="white"/>
</svg>
