<svg width="77" height="77" viewBox="0 0 77 77" fill="none" xmlns="http://www.w3.org/2000/svg">
<g clip-path="url(#clip0_31_339)">
<path d="M70.14 0H6.57C2.94149 0 0 2.94149 0 6.57V70.14C0 73.7685 2.94149 76.71 6.57 76.71H70.14C73.7685 76.71 76.71 73.7685 76.71 70.14V6.57C76.71 2.94149 73.7685 0 70.14 0Z" fill="#9FA2A1"/>
<path d="M63.81 26.43C66.93 22.14 66.24 16.1 62.12 12.64C58.12 9.27999 52.3 9.52999 48.58 13.03C45.4 11.82 41.95 11.15 38.35 11.15C34.75 11.15 31.3 11.82 28.12 13.03C24.41 9.52999 18.59 9.28999 14.58 12.64C10.45 16.1 9.76999 22.13 12.89 26.43C10.72 30.48 9.48999 35.1 9.48999 40.01C9.48999 55.92 22.44 68.87 38.35 68.87C54.26 68.87 67.21 55.92 67.21 40.01C67.21 35.1 65.98 30.48 63.81 26.43ZM38.35 60.87C26.85 60.87 17.49 51.51 17.49 40.01C17.49 28.51 26.85 19.15 38.35 19.15C49.85 19.15 59.21 28.51 59.21 40.01C59.21 51.51 49.85 60.87 38.35 60.87Z" fill="white"/>
</g>
<defs>
<clipPath id="clip0_31_339">
<rect width="76.71" height="76.71" fill="white"/>
</clipPath>
</defs>
</svg>
