<svg width="77" height="77" viewBox="0 0 77 77" fill="none" xmlns="http://www.w3.org/2000/svg">
<path d="M70.14 0H6.57C2.94149 0 0 2.94149 0 6.57V70.14C0 73.7685 2.94149 76.71 6.57 76.71H70.14C73.7685 76.71 76.71 73.7685 76.71 70.14V6.57C76.71 2.94149 73.7685 0 70.14 0Z" fill="#994DCF"/>
<path d="M47.7 56.7499C47.15 52.0699 43.1799 48.4399 38.3499 48.4399C33.5199 48.4399 29.5499 52.0699 29 56.7499C17.49 57.5899 9.19995 59.9299 9.19995 62.6799C9.19995 66.1399 22.2499 68.9399 38.3499 68.9399C54.45 68.9399 67.5 66.1399 67.5 62.6799C67.5 59.9199 59.21 57.5899 47.7 56.7499Z" fill="white"/>
<path d="M28.31 34.42C34.4956 34.42 39.51 29.4056 39.51 23.22C39.51 17.0344 34.4956 12.02 28.31 12.02C22.1244 12.02 17.11 17.0344 17.11 23.22C17.11 29.4056 22.1244 34.42 28.31 34.42Z" fill="white"/>
<path d="M51.28 44.21C54.9472 44.21 57.92 41.2372 57.92 37.57C57.92 33.9028 54.9472 30.93 51.28 30.93C47.6128 30.93 44.64 33.9028 44.64 37.57C44.64 41.2372 47.6128 44.21 51.28 44.21Z" fill="white"/>
</svg>
