<svg width="77" height="77" viewBox="0 0 77 77" fill="none" xmlns="http://www.w3.org/2000/svg">
<path d="M70.14 0H6.57C2.94149 0 0 2.94149 0 6.57V70.14C0 73.7685 2.94149 76.71 6.57 76.71H70.14C73.7685 76.71 76.71 73.7685 76.71 70.14V6.57C76.71 2.94149 73.7685 0 70.14 0Z" fill="#B2AA82"/>
<path d="M58.7099 18.0001L61.3799 29.7201L46.9899 15.3301L58.7099 18.0001L50.2799 9.57007H26.4299L9.56995 26.4301V50.2801L17.7999 58.5101L13.3099 38.7901L37.5199 63.0001L17.7999 58.5101L26.4299 67.1401H50.2799L58.7099 58.7101L38.9899 63.2001L63.1999 38.9901L58.7099 58.7101L67.1399 50.2801V26.4301L58.7099 18.0001Z" fill="white"/>
</svg>
