<svg width="77" height="77" viewBox="0 0 77 77" fill="none" xmlns="http://www.w3.org/2000/svg">
<g clip-path="url(#clip0_31_354)">
<path d="M70.14 0H6.57C2.94149 0 0 2.94149 0 6.57V70.14C0 73.7685 2.94149 76.71 6.57 76.71H70.14C73.7685 76.71 76.71 73.7685 76.71 70.14V6.57C76.71 2.94149 73.7685 0 70.14 0Z" fill="#61A0BB"/>
<path d="M41 27.35L50.18 59.37L67.55 46.75L59.52 22.04L41 27.35ZM52.3 37.6C49.78 37.6 47.74 35.56 47.74 33.04C47.74 30.52 49.78 28.48 52.3 28.48C54.82 28.48 56.86 30.52 56.86 33.04C56.86 35.56 54.82 37.6 52.3 37.6Z" fill="white"/>
<path d="M37.9 38.21L33.61 23.26L57.68 16.36L56.4 12.43H20.3L9.15002 46.75L37.9 38.21ZM26.03 15.23C27.9 15.23 29.41 16.74 29.41 18.61C29.41 20.48 27.9 21.99 26.03 21.99C24.16 21.99 22.65 20.48 22.65 18.61C22.65 16.74 24.16 15.23 26.03 15.23ZM39.04 42.18L13.35 49.81L38.35 67.98L45.04 63.11L39.04 42.18Z" fill="white"/>
</g>
<defs>
<clipPath id="clip0_31_354">
<rect width="76.71" height="76.71" fill="white"/>
</clipPath>
</defs>
</svg>
