<svg width="12" height="7" viewBox="0 0 12 7" fill="none" xmlns="http://www.w3.org/2000/svg">
<path d="M7.76666 5.83317L11.5917 2.00817C11.7469 1.85203 11.834 1.64082 11.834 1.42067C11.834 1.20051 11.7469 0.989304 11.5917 0.833169C11.5142 0.755061 11.422 0.693066 11.3205 0.650759C11.2189 0.608452 11.11 0.58667 11 0.58667C10.89 0.58667 10.7811 0.608452 10.6795 0.650759C10.578 0.693066 10.4858 0.755061 10.4083 0.833168L6.59166 4.6665C6.51419 4.74461 6.42202 4.8066 6.32047 4.84891C6.21892 4.89122 6.11 4.913 5.99999 4.913C5.88998 4.913 5.78106 4.89122 5.67951 4.84891C5.57796 4.8066 5.48579 4.74461 5.40832 4.6665L1.59165 0.833168C1.43584 0.676248 1.22407 0.587653 1.00294 0.586871C0.781798 0.58609 0.569408 0.673187 0.412489 0.829002C0.255568 0.984817 0.166972 1.19659 0.166191 1.41772C0.165409 1.63886 0.252508 1.85125 0.408322 2.00817L4.23332 5.83317C4.70207 6.30134 5.33749 6.5643 5.99999 6.5643C6.66249 6.5643 7.2979 6.30134 7.76666 5.83317Z" fill="#444444"/>
</svg>
