<svg width="22" height="22" viewBox="0 0 22 22" fill="none" xmlns="http://www.w3.org/2000/svg">
<path d="M7.8 21C8.35228 21 8.8 20.5523 8.8 20V14.9412C8.8 14.3889 9.24772 13.9412 9.8 13.9412H12.2C12.7523 13.9412 13.2 14.3889 13.2 14.9412V20C13.2 20.5523 13.6477 21 14.2 21H17.7C18.2523 21 18.7 20.5523 18.7 20V12.5363C18.7 12.0127 19.1245 11.5882 19.648 11.5882V11.5882C20.5014 11.5882 20.9203 10.549 20.3055 9.95717L11.6935 1.66753C11.3063 1.29482 10.6937 1.29482 10.3065 1.66753L1.6945 9.95717C1.07968 10.549 1.4986 11.5882 2.35196 11.5882V11.5882C2.87555 11.5882 3.3 12.0127 3.3 12.5363V20C3.3 20.5523 3.74772 21 4.3 21H7.8Z" stroke="white" stroke-width="2"/>
</svg>
