<svg width="48" height="48" viewBox="0 0 48 48" fill="none" xmlns="http://www.w3.org/2000/svg">
<g clip-path="url(#clip0_2795_31296)">
<path d="M24 0C10.7345 0 0 10.7345 0 24C0 37.2655 10.7345 48 24 48C37.2655 48 48 37.2655 48 24C48 10.7345 37.2655 0 24 0ZM27.0764 33.2509L25.5491 34.8C22.1455 38.2036 16.6036 38.2036 13.2 34.8C9.79636 31.3964 9.79636 25.8545 13.2 22.4509L14.7491 20.9236C15.6 20.0509 16.9745 20.0727 17.8255 20.9236C18.6764 21.7745 18.6764 23.1491 17.8255 24L16.2764 25.5491C14.5745 27.2509 14.5745 30.0218 16.2764 31.7236C17.9782 33.4255 20.7491 33.4255 22.4509 31.7236L24 30.1745C24.8509 29.3236 26.2255 29.3236 27.0764 30.1745C27.9273 31.0255 27.9273 32.4 27.0764 33.2509ZM27.8618 23.2364L23.2364 27.8618C22.3855 28.7127 20.9891 28.7127 20.1382 27.8618C19.2873 27.0109 19.2873 25.6145 20.1382 24.7636L24.7636 20.1382C25.6145 19.2873 27.0109 19.2873 27.8618 20.1382C28.7127 20.9891 28.7127 22.3855 27.8618 23.2364ZM34.8 25.5491L33.2509 27.0764C32.4 27.9273 31.0255 27.9273 30.1745 27.0764C29.3236 26.2255 29.3236 24.8509 30.1745 24L31.7236 22.4509C33.4255 20.7491 33.4255 17.9782 31.7236 16.2764C30.0218 14.5745 27.2509 14.5745 25.5491 16.2764L24 17.8255C23.1491 18.6764 21.7745 18.6764 20.9236 17.8255C20.0727 16.9745 20.0509 15.6 20.9236 14.7491L22.4509 13.2C25.8545 9.79636 31.3964 9.79636 34.8 13.2C38.2036 16.6036 38.2036 22.1455 34.8 25.5491Z" fill="#FFB743"/>
</g>
<defs>
<clipPath id="clip0_2795_31296">
<rect width="48" height="48" fill="white"/>
</clipPath>
</defs>
</svg>
