<svg width="77" height="77" viewBox="0 0 77 77" fill="none" xmlns="http://www.w3.org/2000/svg">
<g clip-path="url(#clip0_31_362)">
<path d="M70.14 0H6.57C2.94149 0 0 2.94149 0 6.57V70.14C0 73.7685 2.94149 76.71 6.57 76.71H70.14C73.7685 76.71 76.71 73.7685 76.71 70.14V6.57C76.71 2.94149 73.7685 0 70.14 0Z" fill="#8EA218"/>
<path d="M38.35 28.23C46.45 28.23 53.54 24.79 57.42 19.66C53.54 13.38 46.45 9.16998 38.35 9.16998C30.25 9.16998 23.16 13.38 19.28 19.66C23.16 24.79 30.25 28.23 38.35 28.23ZM61.19 23.97C56.63 28.99 49.49 32.44 41.31 33.11L52.24 67.53C60.91 62.01 66.66 52.4 66.66 41.45C66.66 34.96 64.64 28.95 61.19 23.97ZM15.52 23.97C20.08 28.99 27.22 32.44 35.4 33.11L24.47 67.53C15.8 62.01 10.05 52.4 10.05 41.45C10.05 34.96 12.07 28.95 15.52 23.97ZM38.35 54.72C40.01 54.72 41.66 54.35 43.18 53.63L41.88 48.89C40.8248 49.5658 39.598 49.925 38.345 49.925C37.0919 49.925 35.8651 49.5658 34.81 48.89L33.51 53.63C35.04 54.35 36.69 54.72 38.34 54.72H38.35ZM38.35 63.86C40.88 63.86 43.33 63.38 45.62 62.5L44.29 57.65C42.44 58.44 40.43 58.86 38.35 58.86C36.27 58.86 34.27 58.44 32.41 57.65L31.08 62.5C33.37 63.38 35.82 63.86 38.35 63.86Z" fill="white"/>
</g>
<defs>
<clipPath id="clip0_31_362">
<rect width="76.71" height="76.71" fill="white"/>
</clipPath>
</defs>
</svg>
