<svg width="77" height="77" viewBox="0 0 77 77" fill="none" xmlns="http://www.w3.org/2000/svg">
<g clip-path="url(#clip0_31_365)">
<path d="M70.14 0H6.57C2.94149 0 0 2.94149 0 6.57V70.14C0 73.7685 2.94149 76.71 6.57 76.71H70.14C73.7685 76.71 76.71 73.7685 76.71 70.14V6.57C76.71 2.94149 73.7685 0 70.14 0Z" fill="#4F4747"/>
<path d="M60.1 20.73C60.1 20.73 56.85 25.14 49.32 27.47C50.16 29.75 50.64 32.4 50.64 35.37C50.64 45.52 45.14 53.76 38.36 53.76C31.58 53.76 26.08 46.49 26.08 35.37C26.08 32.42 26.66 29.79 27.6 27.53C19.93 25.21 16.62 20.73 16.62 20.73C16.62 20.73 9.07997 28.77 9.78997 37.92C10.21 43.25 13.09 49.52 20.14 55.3C20.14 55.3 27.68 61.96 38.36 61.96C49.04 61.96 56.58 55.3 56.58 55.3C63.63 49.52 66.51 43.26 66.93 37.92C67.65 28.77 60.1 20.73 60.1 20.73Z" fill="white"/>
<path d="M35.54 28.85C34.58 30.85 33.96 33.74 33.96 36.57C33.96 41.65 35.93 45.76 38.35 45.76C40.77 45.76 42.74 41.64 42.74 36.57C42.74 33.73 42.13 30.84 41.16 28.85C40.26 28.89 39.32 28.9 38.35 28.87C37.38 28.9 36.44 28.89 35.54 28.85Z" fill="white"/>
</g>
<defs>
<clipPath id="clip0_31_365">
<rect width="76.71" height="76.71" fill="white"/>
</clipPath>
</defs>
</svg>
