<svg width="77" height="77" viewBox="0 0 77 77" fill="none" xmlns="http://www.w3.org/2000/svg">
<path d="M70.14 0H6.57C2.94149 0 0 2.94149 0 6.57V70.14C0 73.7685 2.94149 76.71 6.57 76.71H70.14C73.7685 76.71 76.71 73.7685 76.71 70.14V6.57C76.71 2.94149 73.7685 0 70.14 0Z" fill="#4F62E1"/>
<path d="M12.39 23.98C3.98 35.03 5.16 50.79 15.41 60.45C16.5 56.85 18.55 53.5 21.51 50.85C19.2328 47.7905 17.8357 44.1664 17.47 40.37C12.34 36.45 10.47 29.81 12.39 23.97V23.98ZM64.31 23.98C66.23 29.82 64.36 36.46 59.23 40.38C58.85 44.26 57.41 47.85 55.19 50.86C58.15 53.51 60.2 56.85 61.29 60.46C71.54 50.81 72.72 35.04 64.31 23.99V23.98ZM51.36 25.31C50.24 17.9 47.73 9.57998 46.47 5.66998C46.25 4.98998 45.21 5.00998 45.03 5.69998C43.86 9.97998 42.43 16.79 41.79 19.9C40.72 19.7 39.5 19.58 38.37 19.58C37.24 19.58 36.02 19.69 34.95 19.9C34.31 16.79 32.88 9.98998 31.71 5.69998C31.52 5.00998 30.49 4.97998 30.27 5.66998C29.01 9.57998 26.49 17.89 25.38 25.31C22.71 28.3 21.08 32.24 21.08 36.64C21.08 42.99 24.45 50.49 29.47 54.85L30.85 67.12C30.85 68.92 34.22 71.53 38.38 71.53C42.54 71.53 45.91 68.91 45.91 67.12L47.29 54.85C52.31 50.49 55.68 42.99 55.68 36.64C55.68 32.24 54.05 28.3 51.38 25.31H51.36ZM29.81 48.82C26.83 47.9 24.75 45.21 24.66 42.09C24.54 38.42 24.73 34.5 24.73 34.5L33.93 49.91C32.32 49.54 30.96 49.17 29.81 48.82ZM46.91 48.82C45.77 49.17 44.4 49.55 42.79 49.91L51.99 34.5C51.99 34.5 52.18 38.42 52.06 42.09C52.0107 43.6087 51.4877 45.0741 50.5643 46.2809C49.6408 47.4876 48.3631 48.3754 46.91 48.82Z" fill="white"/>
</svg>
