<svg width="77" height="77" viewBox="0 0 77 77" fill="none" xmlns="http://www.w3.org/2000/svg">
<path d="M70.14 0H6.57C2.94149 0 0 2.94149 0 6.57V70.14C0 73.7685 2.94149 76.71 6.57 76.71H70.14C73.7685 76.71 76.71 73.7685 76.71 70.14V6.57C76.71 2.94149 73.7685 0 70.14 0Z" fill="#FCC001"/>
<path d="M37.97 6.94003C40.47 8.08003 50.81 12.98 57.81 19.16C58.12 19.43 58.15 19.91 57.88 20.22C56.33 22.02 51.22 27.97 45.06 35.21C44.79 35.53 44.82 36.01 45.13 36.29C46.93 37.88 52.61 42.98 56.04 46.72C56.32 47.02 56.3 47.49 56 47.78C53.02 50.65 38.27 64.84 32.55 69.75C32.25 70.01 31.79 69.73 31.88 69.34C32.62 66.32 34.68 58.29 36.87 52.45C36.99 52.14 36.89 51.79 36.62 51.59C34.47 49.95 25.06 42.73 18.88 37.19C18.7549 37.0784 18.6712 36.9279 18.6421 36.7628C18.6131 36.5977 18.6405 36.4276 18.72 36.28C20.08 33.66 26.52 21.56 37.04 7.21003C37.25 6.92003 37.64 6.81003 37.96 6.96003L37.97 6.94003Z" fill="white"/>
</svg>
