<svg width="77" height="77" viewBox="0 0 77 77" fill="none" xmlns="http://www.w3.org/2000/svg">
<path d="M70.14 0H6.57C2.94149 0 0 2.94149 0 6.57V70.14C0 73.7685 2.94149 76.71 6.57 76.71H70.14C73.7685 76.71 76.71 73.7685 76.71 70.14V6.57C76.71 2.94149 73.7685 0 70.14 0Z" fill="#82B9ED"/>
<path d="M23.78 27.7C21.84 32.13 16.28 50.82 14.97 60.85C14.3 65.94 13.66 67.71 14.97 68.1C16.63 68.6 23.62 57.79 26.11 53.63C26.11 53.63 42.03 56.02 50.2 45.84C50.39 45.6 50.18 45.25 49.88 45.31C46.66 45.86 35.07 47.65 29.94 45.66C29.94 45.66 50.83 46.47 60.32 30.99C60.45 30.79 60.24 30.53 60.02 30.61C56.73 31.8 42.52 36.47 34.01 34.27C34.01 34.27 47.84 33.46 58.29 23.96C68.74 14.46 69.6 9.65997 68.85 8.90997C67.43 7.48997 60.2 11.07 54.38 12.9C48.56 14.73 41.24 16.89 36.42 17.89C31.6 18.89 27.61 18.97 23.78 27.7Z" fill="white"/>
</svg>
