<svg width="77" height="77" viewBox="0 0 77 77" fill="none" xmlns="http://www.w3.org/2000/svg">
<path d="M70.14 0H6.57C2.94149 0 0 2.94149 0 6.57V70.14C0 73.7685 2.94149 76.71 6.57 76.71H70.14C73.7685 76.71 76.71 73.7685 76.71 70.14V6.57C76.71 2.94149 73.7685 0 70.14 0Z" fill="#704270"/>
<path d="M64.73 37.5201C62.28 36.9401 60.26 38.0001 58.98 39.0001C59.47 36.9401 59.75 34.9101 59.75 32.9801C59.75 21.1601 50.17 11.5801 38.35 11.5801C26.53 11.5801 16.95 21.1601 16.95 32.9801C16.95 34.9101 17.23 36.9401 17.72 39.0001C16.44 38.0101 14.41 36.9401 11.97 37.5201C8.46002 38.3501 5.57002 43.4001 5.40002 47.7601C5.37002 48.6601 6.47002 49.1201 7.07002 48.4501C8.04002 47.3601 9.31001 46.2401 10.19 46.6101C13.07 47.8301 13.29 52.9301 16.06 52.9301C18.49 52.9301 20.58 50.5001 21.6 49.0701C26.26 57.8601 33.44 65.1301 38.34 65.1301C43.24 65.1301 50.41 57.8701 55.08 49.0701C56.1 50.5001 58.19 52.9301 60.62 52.9301C63.39 52.9301 63.61 47.8301 66.49 46.6101C67.37 46.2401 68.64 47.3501 69.61 48.4501C70.21 49.1201 71.32 48.6601 71.28 47.7601C71.11 43.4001 68.22 38.3501 64.71 37.5201H64.73ZM33.14 34.7801C31.36 35.6101 28.66 33.6001 27.11 30.2801C25.56 26.9601 25.76 23.6001 27.54 22.7701C29.32 21.9401 32.02 23.9501 33.57 27.2701C35.12 30.5901 34.93 33.9501 33.14 34.7801ZM49.59 30.2801C48.04 33.6001 45.34 35.6101 43.56 34.7801C41.78 33.9501 41.58 30.5801 43.13 27.2701C44.68 23.9501 47.38 21.9401 49.16 22.7701C50.94 23.6001 51.14 26.9701 49.59 30.2801Z" fill="white"/>
</svg>
