<svg width="77" height="77" viewBox="0 0 77 77" fill="none" xmlns="http://www.w3.org/2000/svg">
<path d="M70.14 0H6.57C2.94149 0 0 2.94149 0 6.57V70.14C0 73.7685 2.94149 76.71 6.57 76.71H70.14C73.7685 76.71 76.71 73.7685 76.71 70.14V6.57C76.71 2.94149 73.7685 0 70.14 0Z" fill="#AB7939"/>
<path d="M52.29 16.07H60.6V24.38H52.29V16.07ZM27.85 22.56H34.33V29.04H27.85V22.56ZM13.55 8.91998H24.36V19.73H13.55V8.91998ZM67.44 48.21V46.1L38.35 34.49L9.26001 46.1V48.21L38.35 59.81L67.44 48.21Z" fill="white"/>
<path d="M67.52 53.52L38.35 65.3L9.18997 53.52L7.71997 57.16L38.35 69.54L68.99 57.16L67.52 53.52Z" fill="white"/>
</svg>
