<svg width="77" height="77" viewBox="0 0 77 77" fill="none" xmlns="http://www.w3.org/2000/svg">
<g clip-path="url(#clip0_31_348)">
<path d="M70.14 0H6.57C2.94149 0 0 2.94149 0 6.57V70.14C0 73.7685 2.94149 76.71 6.57 76.71H70.14C73.7685 76.71 76.71 73.7685 76.71 70.14V6.57C76.71 2.94149 73.7685 0 70.14 0Z" fill="#F24074"/>
<path d="M38.35 16.28C38.64 16.28 38.94 16.44 39.07 16.76C41.69 23.05 47.86 27.08 54.54 27.08C55.25 27.08 55.97 27.03 56.69 26.94H56.8C57.43 26.94 57.81 27.67 57.41 28.2C52.83 34.18 52.83 42.54 57.39 48.53C57.79 49.05 57.4 49.78 56.78 49.78H56.67C55.95 49.69 55.24 49.64 54.53 49.64C47.85 49.64 41.68 53.66 39.06 59.96C38.93 60.28 38.63 60.44 38.34 60.44C38.05 60.44 37.75 60.28 37.62 59.96C35 53.67 28.83 49.64 22.15 49.64C21.44 49.64 20.72 49.69 20 49.78H19.89C19.26 49.78 18.88 49.05 19.28 48.52C23.86 42.54 23.86 34.18 19.3 28.19C18.9 27.67 19.29 26.94 19.91 26.94H20.02C20.74 27.03 21.45 27.08 22.16 27.08C28.84 27.08 35.01 23.06 37.63 16.76C37.76 16.44 38.06 16.28 38.35 16.28ZM38.35 7.57998C34.51 7.57998 31.07 9.86998 29.6 13.42C28.37 16.38 25.38 18.38 22.16 18.38C21.82 18.38 21.48 18.36 21.14 18.31C20.74 18.26 20.33 18.23 19.92 18.23C16.3 18.23 13.04 20.25 11.43 23.5C10.6389 25.0806 10.3085 26.8519 10.4765 28.6114C10.6445 30.3709 11.3041 32.0476 12.38 33.45C14.57 36.33 14.57 40.35 12.38 43.22C11.2986 44.6212 10.6341 46.2988 10.4625 48.0605C10.2909 49.8221 10.6193 51.5964 11.41 53.18C12.1858 54.7691 13.3938 56.1074 14.8955 57.0413C16.3971 57.9751 18.1316 58.4669 19.9 58.46C20.31 58.46 20.72 58.43 21.13 58.38C21.47 58.34 21.82 58.31 22.16 58.31C25.38 58.31 28.37 60.3 29.6 63.27C31.08 66.82 34.51 69.11 38.35 69.11C42.19 69.11 45.63 66.82 47.1 63.27C48.33 60.31 51.32 58.31 54.54 58.31C54.88 58.31 55.22 58.33 55.56 58.38C55.96 58.43 56.37 58.46 56.78 58.46C60.4 58.46 63.66 56.44 65.27 53.19C66.0611 51.6094 66.3915 49.8381 66.2235 48.0786C66.0555 46.3191 65.3959 44.6423 64.32 43.24C62.13 40.36 62.13 36.34 64.32 33.47C66.53 30.58 66.9 26.77 65.29 23.51C64.5142 21.9209 63.3062 20.5826 61.8045 19.6487C60.3028 18.7148 58.5684 18.2231 56.8 18.23C56.39 18.23 55.98 18.26 55.57 18.31C55.23 18.35 54.88 18.38 54.54 18.38C51.32 18.38 48.33 16.39 47.1 13.42C46.3852 11.6884 45.1716 10.2086 43.6135 9.16867C42.0554 8.12875 40.2232 7.57574 38.35 7.57998Z" fill="white"/>
</g>
<defs>
<clipPath id="clip0_31_348">
<rect width="76.71" height="76.71" fill="white"/>
</clipPath>
</defs>
</svg>
