<svg width="77" height="77" viewBox="0 0 77 77" fill="none" xmlns="http://www.w3.org/2000/svg">
<g clip-path="url(#clip0_31_359)">
<path d="M70.14 0H6.57C2.94149 0 0 2.94149 0 6.57V70.14C0 73.7685 2.94149 76.71 6.57 76.71H70.14C73.7685 76.71 76.71 73.7685 76.71 70.14V6.57C76.71 2.94149 73.7685 0 70.14 0Z" fill="#2992FF"/>
<path d="M54 41.57C54 41.57 50.04 34.71 48.15 31.79C46.18 28.72 44.33 25.06 42.89 19.18C41.45 13.31 40.67 7.65002 38.35 7.65002C36.03 7.65002 35.25 13.3 33.81 19.18C32.37 25.05 30.52 28.71 28.55 31.79C26.67 34.72 22.7 41.57 22.7 41.57C21.0068 44.3835 20.1147 47.6063 20.12 50.89C20.12 60.92 28.32 69.06 38.35 69.06C48.38 69.06 56.58 60.93 56.58 50.89C56.58 47.48 55.63 44.3 54 41.57ZM38.35 64.96C30.17 64.96 23.74 58.86 23.74 54.46C23.74 51.55 30.17 56.98 38.35 56.98C46.53 56.98 52.96 51.55 52.96 54.46C52.96 58.87 46.53 64.96 38.35 64.96Z" fill="white"/>
</g>
<defs>
<clipPath id="clip0_31_359">
<rect width="76.71" height="76.71" fill="white"/>
</clipPath>
</defs>
</svg>
