<svg width="7" height="12" viewBox="0 0 7 12" fill="none" xmlns="http://www.w3.org/2000/svg">
<path d="M1.16683 7.76666L4.99183 11.5917C5.14797 11.7469 5.35918 11.834 5.57933 11.834C5.79949 11.834 6.0107 11.7469 6.16683 11.5917C6.24494 11.5142 6.30693 11.422 6.34924 11.3205C6.39155 11.2189 6.41333 11.11 6.41333 11C6.41333 10.89 6.39155 10.7811 6.34924 10.6795C6.30693 10.578 6.24494 10.4858 6.16683 10.4083L2.3335 6.59166C2.25539 6.51419 2.1934 6.42202 2.15109 6.32047C2.10878 6.21892 2.087 6.11 2.087 5.99999C2.087 5.88998 2.10878 5.78106 2.15109 5.67951C2.1934 5.57796 2.25539 5.48579 2.3335 5.40832L6.16683 1.59165C6.32375 1.43584 6.41235 1.22407 6.41313 1.00294C6.41391 0.781798 6.32681 0.569408 6.171 0.412489C6.01518 0.255568 5.80342 0.166972 5.58228 0.166191C5.36114 0.165409 5.14875 0.252508 4.99183 0.408322L1.16683 4.23332C0.698664 4.70207 0.435697 5.33749 0.435697 5.99999C0.435697 6.66249 0.698664 7.2979 1.16683 7.76666Z" fill="#444444"/>
</svg>
