<svg width="20" height="20" viewBox="0 0 20 20" fill="none" xmlns="http://www.w3.org/2000/svg">
<path d="M5.43063 11.7667L9.25562 15.5917C9.41176 15.7469 9.62297 15.834 9.84313 15.834C10.0633 15.834 10.2745 15.7469 10.4306 15.5917C10.5087 15.5142 10.5707 15.422 10.613 15.3205C10.6553 15.2189 10.6771 15.11 10.6771 15C10.6771 14.89 10.6553 14.7811 10.613 14.6795C10.5707 14.578 10.5087 14.4858 10.4306 14.4083L6.59729 10.5917C6.51919 10.5142 6.45719 10.422 6.41488 10.3205C6.37258 10.2189 6.35079 10.11 6.35079 9.99999C6.35079 9.88998 6.37258 9.78106 6.41488 9.67951C6.45719 9.57796 6.51919 9.48579 6.59729 9.40832L10.4306 5.59165C10.5875 5.43584 10.6761 5.22407 10.6769 5.00294C10.6777 4.7818 10.5906 4.56941 10.4348 4.41249C10.279 4.25557 10.0672 4.16697 9.84607 4.16619C9.62494 4.16541 9.41255 4.25251 9.25563 4.40832L5.43063 8.23332C4.96246 8.70207 4.69949 9.33749 4.69949 9.99999C4.69949 10.6625 4.96246 11.2979 5.43063 11.7667V11.7667Z" fill="#444444"/>
<path d="M9.99508 11.7667L13.8201 15.5917C13.9762 15.7469 14.1874 15.834 14.4076 15.834C14.6277 15.834 14.8389 15.7469 14.9951 15.5917C15.0732 15.5142 15.1352 15.422 15.1775 15.3205C15.2198 15.2189 15.2416 15.11 15.2416 15C15.2416 14.89 15.2198 14.7811 15.1775 14.6795C15.1352 14.578 15.0732 14.4858 14.9951 14.4083L11.1617 10.5917C11.0836 10.5142 11.0216 10.422 10.9793 10.3205C10.937 10.2189 10.9152 10.11 10.9152 9.99999C10.9152 9.88998 10.937 9.78106 10.9793 9.67951C11.0216 9.57796 11.0836 9.48579 11.1617 9.40832L14.9951 5.59165C15.152 5.43584 15.2406 5.22407 15.2414 5.00294C15.2422 4.7818 15.1551 4.56941 14.9992 4.41249C14.8434 4.25557 14.6317 4.16697 14.4105 4.16619C14.1894 4.16541 13.977 4.25251 13.8201 4.40832L9.99508 8.23332C9.52691 8.70207 9.26394 9.33749 9.26394 9.99999C9.26394 10.6625 9.52691 11.2979 9.99508 11.7667V11.7667Z" fill="#444444"/>
</svg>
